<?xml version="1.0" encoding="UTF-8" standalone="no"?>
<svg
   width="750"
   height="750"
   version="1.1"
   id="svg35"
   sodipodi:docname="SMGP.svg"
   inkscape:version="1.3.2 (091e20e, 2023-11-25, custom)"
   inkscape:export-filename="..\Desktop\MPC\myproject\myapp\static\favicon-96x96.png"
   inkscape:export-xdpi="12.288"
   inkscape:export-ydpi="12.288"
   xmlns:inkscape="http://www.inkscape.org/namespaces/inkscape"
   xmlns:sodipodi="http://sodipodi.sourceforge.net/DTD/sodipodi-0.dtd"
   xmlns="http://www.w3.org/2000/svg"
   xmlns:svg="http://www.w3.org/2000/svg">
  <sodipodi:namedview
     id="namedview35"
     pagecolor="#ffffff"
     bordercolor="#000000"
     borderopacity="0.25"
     inkscape:showpageshadow="2"
     inkscape:pageopacity="0.0"
     inkscape:pagecheckerboard="0"
     inkscape:deskcolor="#d1d1d1"
     inkscape:zoom="0.70710678"
     inkscape:cx="415.07168"
     inkscape:cy="262.33661"
     inkscape:window-width="1920"
     inkscape:window-height="1057"
     inkscape:window-x="-8"
     inkscape:window-y="-8"
     inkscape:window-maximized="1"
     inkscape:current-layer="svg35"
     inkscape:export-bgcolor="#eeeeee00" />
  <defs
     id="defs3">
    <linearGradient
       id="gradient_0"
       gradientUnits="userSpaceOnUse"
       x1="517.1214"
       y1="736.85632"
       x2="514.5592"
       y2="200.98059">
      <stop
         offset="0"
         stop-color="#C1985A"
         id="stop2" />
      <stop
         offset="1"
         stop-color="#FFEAAF"
         id="stop3" />
    </linearGradient>
  </defs>
  <rect
     style="display:none;fill:#101524;fill-opacity:1;stroke:#000055;stroke-width:0.4534;stroke-linecap:round;stroke-linejoin:round;paint-order:stroke fill markers"
     id="rect78"
     width="749.54657"
     height="749.54657"
     x="0.22669999"
     y="0.22669999" />
  <path
     fill="#4e7ea8"
     d="m 310.176,164.289 c 5.364,-3.786 14.184,-4.401 20.538,-5.42 30.537,-4.897 59.419,-5.399 89.932,-0.116 6.85,1.185 14.724,2.251 20.932,5.445 0.421,0.757 0.331,0.303 -0.12,1.364 -8.662,20.404 -14.867,44.276 -16.011,66.462 -35.815,8.895 -62.871,9.389 -98.78,0.026 -2.897,-20.06 -7.544,-47.347 -15.54,-65.617 l -0.295,-0.657 z"
     id="path8"
     style="display:inline" />
  <path
     fill="#ffeaaf"
     d="m 310.176,164.289 c 5.364,-3.786 14.184,-4.401 20.538,-5.42 30.537,-4.897 59.419,-5.399 89.932,-0.116 6.85,1.185 14.724,2.251 20.932,5.445 -6.633,1.154 -22.416,-2.579 -30.106,-3.469 -7.155,-0.828 -14.409,-1.23 -21.605,-1.511 -16.144,-0.631 -32.653,-0.214 -48.715,1.565 -8.055,0.891 -16.046,2.405 -24.079,3.483 -1.836,0.246 -5.274,1.008 -6.897,0.023 z"
     id="path9"
     style="display:inline" />
  <defs
     id="defs10">
    <linearGradient
       id="gradient_1"
       gradientUnits="userSpaceOnUse"
       x1="448.92026"
       y1="670.35736"
       x2="431.95514"
       y2="543.84125"
       gradientTransform="translate(-140,-130)">
      <stop
         offset="0"
         stop-color="#000E1E"
         id="stop9" />
      <stop
         offset="1"
         stop-color="#4E7EA8"
         id="stop10" />
    </linearGradient>
  </defs>
  <path
     fill="url(#gradient_1)"
     d="m 254.748,410.898 c 7.782,-3.957 16.336,-6.697 24.524,-9.69 l 36.674,-13.381 c 0.019,8.115 0.965,16.227 1.792,24.289 3.811,22.713 7.215,44.945 13.461,67.189 q 5.912,20.91 12.535,41.606 c 2.005,6.24 4.625,12.386 6.255,18.722 l -0.737,-0.118 c -0.527,-1.857 -1.237,-3.474 -2.079,-5.208 -5.731,0.949 -13.988,0.934 -19.137,3.39 -0.717,0.342 -1.202,0.529 -1.963,0.71 l -0.917,0.211 c -24.495,-30.84 -46.58,-63.407 -69.773,-95.19 16.516,-5.518 33.476,-10.007 50.373,-14.18 -8.514,-3.831 -17.133,-6.75 -26.027,-9.556 z"
     id="path10"
     style="display:inline;fill:url(#gradient_1)" />
  <path
     fill="#4e7ea8"
     d="m 254.748,410.898 c 7.782,-3.957 16.336,-6.697 24.524,-9.69 l 36.674,-13.381 c 0.019,8.115 0.965,16.227 1.792,24.289 l -0.743,1.102 c -2.391,0.353 -4.604,-0.337 -6.98,-0.55 -4.536,-0.408 -14.377,-0.54 -18.229,1.857 -0.622,0.387 -1.254,0.753 -1.874,1.142 -1.893,-0.133 -3.764,-0.254 -5.642,-0.531 -1.188,-0.175 -1.882,-0.05 -3.02,0.305 -1.451,1.427 -1.367,2.253 -1.521,4.251 z"
     id="path11" />
  <defs
     id="defs12">
    <linearGradient
       id="gradient_2"
       gradientUnits="userSpaceOnUse"
       x1="613.08215"
       y1="729.46704"
       x2="598.01532"
       y2="588.59473"
       gradientTransform="translate(-140,-130)">
      <stop
         offset="0"
         stop-color="#000E1E"
         id="stop11" />
      <stop
         offset="1"
         stop-color="#4E7EA8"
         id="stop12" />
    </linearGradient>
  </defs>
  <path
     fill="url(#gradient_2)"
     d="m 515.27,451.235 c 7.549,3.115 15.067,6.382 22.677,9.34 -20.182,24.38 -43.008,46.981 -64.548,70.187 -10.714,11.544 -22.789,23.14 -31.135,36.567 31.653,-16.582 57.536,-46.287 82.845,-71.031 l 7.677,4.941 c -9.463,13.321 -20.242,25.066 -31.606,36.779 -26.067,26.867 -54.63,51.099 -88.035,68.431 -9.315,5.679 -19.77,9.417 -29.738,13.765 4.078,-5.077 7.937,-10.393 12.164,-15.34 Q 457.096,529.359 515.27,451.235 Z"
     id="path12"
     style="fill:url(#gradient_2)" />
  <path
     fill="#000e1e"
     d="m 383.407,620.214 c 4.078,-5.077 7.937,-10.393 12.164,-15.34 1.377,1.495 2.021,2.018 4.176,2.076 4.457,0.119 8.965,-1.316 13.398,-0.501 -9.315,5.679 -19.77,9.417 -29.738,13.765 z"
     id="path13" />
  <defs
     id="defs14">
    <linearGradient
       id="gradient_3"
       gradientUnits="userSpaceOnUse"
       x1="418.01843"
       y1="727.96118"
       x2="433.49158"
       y2="588.43097"
       gradientTransform="translate(-140,-130)">
      <stop
         offset="0"
         stop-color="#000E1E"
         id="stop13" />
      <stop
         offset="1"
         stop-color="#4E7EA8"
         id="stop14" />
    </linearGradient>
  </defs>
  <path
     fill="url(#gradient_3)"
     d="m 235.824,451.007 c 5.415,5.339 9.473,12.286 14.032,18.36 l 28.547,37.539 c 25.425,33.201 51.901,65.421 78.097,97.993 3.685,3.618 6.565,8.631 8.761,13.267 -9.978,-2.88 -19.854,-7.625 -28.822,-12.867 -34.227,-18.372 -65.547,-44.966 -92.001,-73.24 -9.135,-9.763 -17.684,-20.132 -26.27,-30.38 2.448,-1.754 4.997,-3.391 7.495,-5.074 8.979,7.108 16.245,15.634 24.369,23.614 q 18.57,18.204 38.945,34.363 c 4.758,3.817 9.57,8.122 14.827,11.215 1.725,1.015 3.63,1.604 5.531,2.192 -7.103,-13.188 -19.39,-25.049 -29.493,-36.002 -21.983,-23.831 -45.671,-46.521 -66.433,-71.425 q 11.169,-4.868 22.415,-9.555 z"
     id="path14"
     style="fill:url(#gradient_3)" />
  <path
     fill="#000e1e"
     d="m 356.5,604.899 c 3.685,3.618 6.565,8.631 8.761,13.267 -9.978,-2.88 -19.854,-7.625 -28.822,-12.867 3.923,-0.261 7.923,0.597 11.837,0.921 2.877,0.238 5.928,0.584 8.224,-1.321 z"
     id="path15" />
  <defs
     id="defs16">
    <linearGradient
       id="gradient_4"
       gradientUnits="userSpaceOnUse"
       x1="581.74054"
       y1="664.32703"
       x2="602.42126"
       y2="551.09973"
       gradientTransform="translate(-140,-130)">
      <stop
         offset="0"
         stop-color="#000E1E"
         id="stop15" />
      <stop
         offset="1"
         stop-color="#4E7EA8"
         id="stop16" />
    </linearGradient>
  </defs>
  <path
     fill="url(#gradient_4)"
     d="m 434.261,414.143 c 1.354,2.354 3.651,3.69 6.245,4.31 7.724,1.846 15.298,-0.212 22.434,4.45 -5.463,2.001 -10.945,3.952 -16.307,6.215 15.912,6.075 32.895,9.986 49.358,14.33 -12.968,22.253 -30.276,43.543 -45.657,64.266 l -12.825,17.17 c -1.884,2.506 -3.792,5.633 -5.992,7.823 -3.119,-0.732 -5.521,-3.276 -8.828,-3.902 -3.933,-0.744 -9.474,0.469 -13.031,-1.116 -1.603,-0.714 -1.94,-1.335 -2.612,-2.899 q 4.783,-13.445 8.884,-27.113 4.101,-13.668 7.51,-27.525 3.408,-13.857 6.115,-27.868 2.707,-14.011 4.706,-28.141 z"
     id="path16"
     style="fill:url(#gradient_4)" />
  <path
     fill="#ffeaaf"
     d="m 323.822,314.788 c 16.036,2.695 31.667,4.14 47.926,4.439 2.055,2.516 4.093,5.099 6.322,7.463 12.126,12.863 27.763,16.425 44.852,16.921 -3.586,11.946 -8.63,22.677 -16.306,32.542 -6.742,8.466 -16.164,15.248 -27.127,16.585 -9.285,1.133 -18.616,-2.547 -25.806,-8.253 -20.854,-16.552 -27.081,-44.582 -29.861,-69.697 z"
     id="path17" />
  <defs
     id="defs18">
    <linearGradient
       id="gradient_5"
       gradientUnits="userSpaceOnUse"
       x1="512.58002"
       y1="640.52881"
       x2="515.53052"
       y2="529.85443"
       gradientTransform="translate(-140,-130)">
      <stop
         offset="0"
         stop-color="#C1985A"
         id="stop17" />
      <stop
         offset="1"
         stop-color="#FFEAAF"
         id="stop18" />
    </linearGradient>
  </defs>
  <path
     fill="url(#gradient_5)"
     d="m 331.838,399.2 c 6.024,4.145 12.014,8.521 18.509,11.908 5.888,3.072 12.153,5.364 18.063,8.402 l -17.866,5.436 c -0.297,9.367 2.102,18.082 4.368,27.084 7.128,-2.675 13.85,-6.236 20.605,-9.718 6.957,3.594 13.731,7.406 21.27,9.68 2.049,-6.048 6.228,-20.938 3.767,-26.918 -2.598,-2.721 -13.892,-4.435 -17.9,-5.505 5.651,-2.479 11.493,-4.86 16.934,-7.772 6.869,-3.677 13.41,-8.222 19.944,-12.457 0.165,7.775 -1.116,15.898 -2.451,23.551 -5.516,31.628 -17.741,59.885 -34.714,86.998 -2.146,3.202 -4.243,6.456 -6.487,9.589 -1.885,-2.887 -4.075,-5.817 -5.612,-8.894 -3.744,-4.389 -6.924,-11.195 -9.717,-16.313 C 344.759,465.33 333.077,432.406 331.838,399.2 Z"
     id="path18"
     style="fill:url(#gradient_5)" />
  <path
     fill="#c1985a"
     d="m 370.268,510.584 c 0.326,-0.058 1.355,-0.223 1.685,-0.345 3.66,-1.349 6.605,-0.829 10.414,-0.35 -2.146,3.202 -4.243,6.456 -6.487,9.589 -1.885,-2.887 -4.075,-5.817 -5.612,-8.894 z"
     id="path19" />
  <path
     fill="#000e1e"
     d="m 373.084,463.76 q 0.299,-0.102 0.604,-0.185 0.306,-0.082 0.616,-0.144 0.31,-0.062 0.624,-0.103 0.313,-0.041 0.629,-0.061 0.316,-0.02 0.632,-0.019 0.316,0.001 0.632,0.023 0.315,0.022 0.628,0.065 0.314,0.043 0.623,0.107 0.31,0.064 0.615,0.148 0.305,0.084 0.603,0.188 0.299,0.104 0.59,0.228 0.291,0.124 0.573,0.267 0.282,0.143 0.554,0.305 0.272,0.161 0.533,0.34 0.26,0.18 0.508,0.376 0.249,0.196 0.483,0.408 0.235,0.212 0.454,0.44 0.22,0.227 0.425,0.468 0.204,0.242 0.392,0.496 0.187,0.255 0.358,0.521 0.17,0.267 0.322,0.544 0.153,0.277 0.286,0.563 0.134,0.287 0.248,0.582 0.114,0.295 0.208,0.597 0.094,0.302 0.168,0.609 0.074,0.308 0.128,0.619 0.053,0.312 0.086,0.627 0.032,0.314 0.044,0.63 0.011,0.316 0.002,0.632 -0.01,0.316 -0.041,0.631 -0.03,0.315 -0.082,0.627 -0.051,0.312 -0.123,0.62 -0.072,0.308 -0.164,0.61 -0.093,0.303 -0.205,0.598 -0.113,0.296 -0.244,0.584 -0.132,0.287 -0.283,0.565 -0.15,0.278 -0.319,0.546 -0.169,0.267 -0.355,0.523 -0.186,0.256 -0.389,0.498 -0.203,0.243 -0.421,0.472 -0.219,0.228 -0.452,0.442 -0.233,0.214 -0.48,0.411 -0.247,0.198 -0.506,0.379 -0.26,0.181 -0.531,0.344 -0.271,0.163 -0.552,0.308 -0.281,0.144 -0.572,0.27 -0.29,0.126 -0.588,0.232 -0.298,0.106 -0.602,0.192 -0.221,0.062 -0.444,0.114 -0.223,0.052 -0.448,0.092 -0.226,0.041 -0.453,0.071 -0.227,0.03 -0.455,0.049 -0.229,0.019 -0.458,0.027 -0.228,0.007 -0.458,0.004 -0.229,-0.003 -0.457,-0.017 -0.229,-0.015 -0.457,-0.04 -0.227,-0.025 -0.454,-0.061 -0.226,-0.036 -0.45,-0.083 -0.224,-0.047 -0.446,-0.105 -0.221,-0.058 -0.44,-0.127 -0.219,-0.068 -0.434,-0.147 -0.215,-0.079 -0.426,-0.168 -0.211,-0.089 -0.417,-0.188 -0.207,-0.1 -0.408,-0.209 -0.202,-0.109 -0.398,-0.228 -0.196,-0.118 -0.386,-0.246 -0.19,-0.128 -0.373,-0.265 -0.184,-0.137 -0.361,-0.283 -0.176,-0.146 -0.346,-0.3 -0.17,-0.154 -0.332,-0.316 -0.161,-0.162 -0.315,-0.332 -0.154,-0.169 -0.3,-0.346 -0.145,-0.177 -0.282,-0.361 -0.137,-0.183 -0.265,-0.374 -0.128,-0.19 -0.246,-0.386 -0.119,-0.196 -0.228,-0.397 -0.109,-0.202 -0.208,-0.408 -0.099,-0.207 -0.188,-0.418 -0.089,-0.211 -0.168,-0.426 -0.079,-0.215 -0.147,-0.434 -0.068,-0.219 -0.126,-0.44 -0.058,-0.222 -0.105,-0.446 -0.046,-0.225 -0.082,-0.451 -0.036,-0.226 -0.062,-0.454 -0.025,-0.227 -0.039,-0.456 -0.014,-0.229 -0.017,-0.458 -0.003,-0.229 0.005,-0.458 0.008,-0.229 0.027,-0.457 0.019,-0.228 0.049,-0.455 0.03,-0.228 0.071,-0.453 0.041,-0.225 0.093,-0.449 0.052,-0.223 0.114,-0.443 0.063,-0.221 0.136,-0.438 0.073,-0.217 0.156,-0.43 0.084,-0.214 0.177,-0.423 0.094,-0.209 0.197,-0.413 0.104,-0.204 0.217,-0.404 0.114,-0.199 0.236,-0.392 0.123,-0.193 0.255,-0.381 0.132,-0.187 0.273,-0.368 0.141,-0.18 0.29,-0.354 0.15,-0.174 0.307,-0.34 0.158,-0.166 0.323,-0.325 0.166,-0.158 0.338,-0.309 0.173,-0.15 0.353,-0.292 0.18,-0.141 0.367,-0.275 0.186,-0.132 0.379,-0.256 0.193,-0.124 0.391,-0.239 0.199,-0.114 0.402,-0.219 0.204,-0.104 0.413,-0.199 0.208,-0.095 0.421,-0.179 0.213,-0.085 0.43,-0.159 z"
     id="path20" />
  <path
     fill="#4e7ea8"
     d="m 454.079,267.188 c 8.936,0.252 15.042,3.013 21.926,8.624 -15.632,8.65 -32.863,13.226 -50.337,16.389 -46.698,8.451 -84.463,5.18 -129.94,-7.56 -7.114,-2.383 -13.94,-5.37 -20.365,-9.245 17.729,-15.143 33.592,-4.193 52.537,0.908 29.69,7.994 64.668,7.464 94.366,-0.212 10.753,-2.78 20.653,-7.618 31.813,-8.904 z"
     id="path21" />
  <path
     fill="#4e7ea8"
     d="m 328.013,247.655 c 23.651,4.358 46.102,7.501 70.166,4.492 8.507,-1.063 16.852,-3.119 25.321,-4.444 0.176,3.21 0.592,6.638 0.416,9.844 -0.084,1.525 -0.371,1.92 -1.51,2.88 -31.323,10.753 -63.44,9.277 -94.838,0.173 -0.04,-4.336 0.179,-8.621 0.445,-12.945 z"
     id="path22" />
  <path
     fill="#ffeaaf"
     d="m 524.155,310.353 c 1.291,1.231 4.403,14.578 6.53,18.305 5.776,10.121 16.146,12.827 26.503,15.863 -5.893,1.082 -11.925,2.542 -17.117,5.63 -11.957,7.113 -12.362,18.509 -15.236,30.561 l -0.667,-0.003 c -1.608,-8.028 -3.076,-16.825 -7.947,-23.616 -6.416,-8.946 -16.369,-10.937 -26.525,-12.478 5.987,-1.44 12.208,-2.869 17.628,-5.903 10.796,-6.044 13.73,-17.315 16.831,-28.359 z"
     id="path23" />
  <path
     fill="#4e7ea8"
     d="m 436.054,387.553 c 13.104,5.684 26.491,10.637 39.849,15.681 6.641,2.508 13.502,4.825 19.972,7.74 -10.812,4.405 -22.017,7.795 -32.935,11.929 -7.136,-4.662 -14.71,-2.604 -22.434,-4.45 -2.594,-0.62 -4.891,-1.956 -6.245,-4.31 0.806,-8.832 1.696,-17.714 1.793,-26.59 z"
     id="path24" />
  <path
     fill="#ffeaaf"
     d="m 233.79,311.399 c 2.278,2.899 3.604,12.047 5.689,16.293 5.113,10.412 14.946,13.388 25.069,16.822 -4.811,1.143 -9.793,2.354 -14.205,4.642 -10.898,5.649 -13.056,16.711 -16.446,27.406 l -0.574,0.046 c -0.995,-6.645 -2.68,-13.949 -6.595,-19.544 -6.211,-8.875 -15.947,-10.787 -25.899,-12.464 6.154,-1.514 12.727,-2.993 18.191,-6.332 9.947,-6.078 12.195,-16.404 14.77,-26.869 z"
     id="path25" />
  <path
     fill="#000e1e"
     d="m 384.876,591.399 c 1.8,-6.563 4.395,-13.068 6.548,-19.536 5.222,-15.683 10.591,-31.328 15.622,-47.073 0.672,1.564 1.009,2.185 2.612,2.899 3.557,1.585 9.098,0.372 13.031,1.116 3.307,0.626 5.709,3.17 8.828,3.902 -5.095,7.537 -11.151,14.703 -16.637,21.985 -9.602,12.745 -18.542,25.523 -30.004,36.707 z"
     id="path26" />
  <path
     fill="#000e1e"
     d="m 325.156,538.618 0.917,-0.211 c 0.761,-0.181 1.246,-0.368 1.963,-0.71 5.149,-2.456 13.406,-2.441 19.137,-3.39 0.842,1.734 1.552,3.351 2.079,5.208 l 0.737,0.118 c 1.969,3.971 3.24,8.747 4.614,12.962 3.899,11.961 7.482,23.76 9.621,36.172 -3.954,-5.785 -9.008,-11.106 -13.366,-16.616 q -13.031,-16.628 -25.702,-33.533 z"
     id="path27" />
  <path
     fill="#ffeaaf"
     d="m 531.567,215.342 c 1.722,2.995 2.42,6.804 3.982,9.986 3.742,7.62 10.408,9.578 17.835,12.088 -3.718,1.048 -7.491,2.117 -10.846,4.089 -6.597,3.876 -8.426,10.732 -10.365,17.657 l -0.543,0.022 c -0.933,-3.452 -1.908,-7.057 -3.647,-10.201 -4.248,-7.682 -11.459,-9.668 -19.234,-11.995 3.984,-0.809 7.977,-1.646 11.565,-3.654 7.085,-3.964 9.22,-10.679 11.253,-17.992 z"
     id="path28" />
  <path
     fill="#ffeaaf"
     d="m 232.814,214.884 c 3.086,3.252 2.293,8.87 4.233,12.668 2.847,5.574 11.832,7.809 17.318,9.507 -2.758,0.889 -5.611,1.748 -8.257,2.932 -8.415,3.766 -10.421,11.698 -13.301,19.614 -1.11,-4.304 -2.144,-8.753 -4.557,-12.549 -4.087,-6.433 -11.028,-8.112 -17.93,-9.82 4.701,-1.316 9.596,-2.509 13.673,-5.321 5.97,-4.116 7.484,-10.351 8.821,-17.031 z"
     id="path29" />
  <path
     fill="#ffeaaf"
     d="m 476.672,187.226 q 0.158,-0.032 0.318,-0.056 0.16,-0.024 0.321,-0.04 0.161,-0.016 0.322,-0.024 0.161,-0.008 0.323,-0.009 0.162,0 0.323,0.007 0.162,0.008 0.323,0.023 0.16,0.016 0.32,0.039 0.16,0.023 0.319,0.054 0.158,0.031 0.315,0.07 0.157,0.039 0.312,0.085 0.155,0.047 0.307,0.101 0.153,0.053 0.302,0.115 0.15,0.061 0.296,0.129 0.146,0.069 0.289,0.144 0.143,0.076 0.282,0.158 0.139,0.083 0.274,0.172 0.135,0.089 0.265,0.185 0.131,0.095 0.256,0.197 0.126,0.102 0.246,0.21 0.12,0.108 0.235,0.221 0.115,0.114 0.224,0.233 0.11,0.119 0.213,0.243 0.103,0.124 0.201,0.254 0.097,0.129 0.187,0.262 0.091,0.134 0.175,0.272 0.084,0.138 0.161,0.28 0.078,0.142 0.148,0.288 0.07,0.145 0.133,0.294 0.063,0.149 0.119,0.301 0.055,0.151 0.104,0.306 0.048,0.154 0.088,0.31 0.041,0.157 0.074,0.315 0.033,0.158 0.058,0.318 0.025,0.159 0.043,0.32 0.017,0.161 0.026,0.322 0.01,0.161 0.011,0.323 0.002,0.162 -0.004,0.323 -0.007,0.162 -0.021,0.323 -0.014,0.161 -0.036,0.321 -0.022,0.16 -0.052,0.319 -0.03,0.158 -0.067,0.316 -0.038,0.157 -0.083,0.312 -0.045,0.155 -0.098,0.308 -0.052,0.153 -0.113,0.303 -0.06,0.15 -0.127,0.297 -0.067,0.147 -0.142,0.29 -0.074,0.143 -0.156,0.283 -0.081,0.14 -0.169,0.275 -0.088,0.136 -0.183,0.267 -0.094,0.131 -0.195,0.257 -0.101,0.126 -0.208,0.247 -0.107,0.122 -0.219,0.237 -0.113,0.116 -0.231,0.226 -0.119,0.111 -0.242,0.215 -0.124,0.104 -0.252,0.202 -0.128,0.098 -0.261,0.19 -0.133,0.092 -0.271,0.177 -0.137,0.085 -0.278,0.163 -0.142,0.079 -0.287,0.15 -0.145,0.071 -0.293,0.136 -0.149,0.064 -0.3,0.121 -0.151,0.056 -0.305,0.106 -0.154,0.049 -0.31,0.091 -0.156,0.042 -0.314,0.076 -0.16,0.034 -0.321,0.061 -0.161,0.027 -0.323,0.045 -0.162,0.019 -0.325,0.029 -0.162,0.011 -0.326,0.013 -0.163,0.003 -0.326,-0.003 -0.163,-0.005 -0.326,-0.019 -0.162,-0.013 -0.324,-0.035 -0.162,-0.021 -0.322,-0.051 -0.161,-0.029 -0.32,-0.067 -0.158,-0.037 -0.315,-0.082 -0.157,-0.045 -0.312,-0.098 -0.154,-0.053 -0.305,-0.113 -0.152,-0.061 -0.301,-0.129 -0.148,-0.067 -0.293,-0.142 -0.145,-0.075 -0.286,-0.157 -0.141,-0.082 -0.278,-0.171 -0.137,-0.089 -0.269,-0.185 -0.132,-0.096 -0.259,-0.197 -0.128,-0.102 -0.25,-0.211 -0.122,-0.108 -0.239,-0.222 -0.117,-0.114 -0.228,-0.233 -0.111,-0.12 -0.216,-0.245 -0.105,-0.125 -0.203,-0.255 -0.099,-0.13 -0.191,-0.265 -0.092,-0.134 -0.178,-0.274 -0.085,-0.139 -0.163,-0.282 -0.079,-0.143 -0.15,-0.29 -0.071,-0.146 -0.135,-0.297 -0.064,-0.15 -0.12,-0.303 -0.057,-0.153 -0.106,-0.309 -0.049,-0.155 -0.09,-0.313 -0.041,-0.158 -0.074,-0.318 -0.033,-0.16 -0.059,-0.321 -0.025,-0.161 -0.042,-0.323 -0.018,-0.163 -0.027,-0.326 -0.009,-0.163 -0.011,-0.326 -0.001,-0.163 0.006,-0.326 0.007,-0.163 0.021,-0.326 0.015,-0.162 0.038,-0.324 0.023,-0.161 0.053,-0.322 0.031,-0.16 0.07,-0.318 0.038,-0.159 0.085,-0.315 0.046,-0.157 0.1,-0.311 0.054,-0.154 0.116,-0.305 0.061,-0.151 0.13,-0.299 0.069,-0.148 0.145,-0.292 0.076,-0.145 0.159,-0.285 0.084,-0.141 0.174,-0.277 0.09,-0.136 0.186,-0.267 0.097,-0.132 0.2,-0.259 0.103,-0.126 0.212,-0.248 0.109,-0.121 0.224,-0.237 0.115,-0.116 0.235,-0.226 0.121,-0.11 0.246,-0.214 0.126,-0.104 0.257,-0.201 0.131,-0.098 0.266,-0.189 0.135,-0.091 0.275,-0.176 0.14,-0.084 0.283,-0.161 0.144,-0.078 0.292,-0.148 0.147,-0.07 0.298,-0.133 0.15,-0.062 0.304,-0.118 0.153,-0.055 0.309,-0.103 0.157,-0.047 0.315,-0.087 0.158,-0.04 0.318,-0.072 z"
     id="path30" />
  <path
     fill="#ffeaaf"
     d="m 276.311,188.818 c 3,2.409 5.227,5.545 7.572,8.562 l -7.502,7.68 c -2.882,-2.735 -5.598,-5.625 -8.333,-8.504 3.14,-2.203 5.706,-4.904 8.263,-7.738 z"
     id="path31" />
  <path
     fill="#ffeaaf"
     d="m 210.08,283.38 c 2.946,1.523 5.282,5.214 7.24,7.808 l -7.371,7.085 c -2.682,-2.444 -5.245,-4.978 -7.79,-7.565 2.772,-2.339 5.371,-4.749 7.921,-7.328 z"
     id="path32" />
  <path
     fill="#ffeaaf"
     d="m 562.475,286.847 c 2.796,1.631 4.81,4.487 6.853,6.935 -2.037,2.335 -4.224,4.431 -6.491,6.541 -2.708,-1.962 -4.748,-4.35 -6.918,-6.866 z"
     id="path33" />
  <path
     fill="#ffeaaf"
     d="m 515.306,186.477 c 0.735,0.218 1.584,0.427 2.252,0.804 1.172,0.661 1.471,1.449 1.849,2.662 -0.227,1.774 -0.926,2.742 -1.947,4.182 -0.735,-0.24 -1.6,-0.474 -2.261,-0.878 -0.649,-0.398 -1.294,-1.145 -1.483,-1.876 -0.496,-1.909 0.605,-3.378 1.59,-4.894 z"
     id="path34" />
  <path
     fill="#ffeaaf"
     d="m 199.188,390.054 c 1.587,0.361 2.397,0.735 3.493,1.968 0.343,1.787 -0.399,3.175 -1.042,4.801 -1.476,-0.339 -2.277,-0.929 -3.19,-2.111 -0.432,-1.89 0.02,-2.898 0.739,-4.658 z"
     id="path35" />
  <path
     style="fill:#ffeaaf;fill-opacity:1;stroke:#000055;stroke-width:0.724846;stroke-linecap:round;stroke-linejoin:round;paint-order:stroke fill markers"
     d="M 351.65948,681.50319 C 301.75669,656.99947 262.12912,629.1155 226.71056,593.5828 168.0139,534.69697 133.51745,465.77351 121.39433,383.16232 c -1.68774,-11.50081 -2.03112,-27.45029 -2.45998,-114.26098 -0.39621,-80.20226 -0.19705,-101.25748 0.9711,-102.66501 2.38155,-2.8696 10.77724,-6.66161 32.99807,-14.904 36.51241,-13.54356 147.75603,-57.41468 188.87628,-74.48708 17.70337,-7.35013 30.95533,-12.1574 33.5137,-12.1574 0.94822,0 35.76966,13.55965 77.38099,30.13256 81.71488,32.54529 153.05477,60.48205 160.50599,62.85428 2.55709,0.8141 7.58354,2.948 11.16988,4.742 5.84209,2.9224 6.59669,3.72219 7.25168,7.68591 1.19711,7.24448 0.81834,177.30072 -0.43703,196.20614 -2.957,44.53162 -13.18135,82.45916 -33.52655,124.36776 -37.27424,76.78034 -98.4664,137.8152 -184.95742,184.48197 -11.13955,6.01042 -32.12338,15.60069 -36.22728,16.55702 -1.9173,0.4468 -9.1717,-2.54115 -24.79428,-10.2123 z m 39.06932,-26.4543 c 20.55035,-10.09041 53.54922,-30.10044 70.0208,-42.45956 62.15991,-46.64047 107.89322,-110.27987 130.20961,-181.19092 3.1315,-9.95043 7.55097,-29.57329 10.20931,-45.33031 2.44773,-14.50865 2.56674,-18.83718 2.98992,-108.74397 l 0.44073,-93.63388 -10.81945,-4.24467 c -5.95069,-2.33457 -34.61786,-13.45708 -63.70481,-24.71668 -29.08694,-11.25961 -75.79028,-29.60914 -103.7852,-40.77674 l -50.89985,-20.30473 -36.27381,14.47352 c -46.2655,18.46026 -138.95717,54.7201 -162.38506,63.52303 -9.90874,3.72317 -20.76186,7.92603 -24.11805,9.33969 l -6.10216,2.5703 0.004,83.24118 c 0.004,87.30376 0.49051,98.96319 5.26929,126.32614 17.20297,98.50283 78.60011,185.11722 171.39871,241.79624 12.04356,7.3559 49.77064,27.12453 51.85479,27.17141 0.71174,0.016 7.77281,-3.15201 15.69126,-7.04005 z"
     id="path39" />
</svg>
